# xmcd
#
# Track frame offsets:
# 150
# 13537
# 26892
# 40322
# 54032
# 65967
# 79987
# 93830
# 108857
# 121787
# 132897
# 149187
# 162325
# 177330
# 189705
#
# Disc length: 2689 seconds
#
#
# Revision: 0
# Processed by: cddbd v1.4PL0 Copyright (c) Steve Scherf et al.
# Submitted via: FreeRIP 2.00 
#
DISCID=d10a7f0f
DTITLE=Raul Abramzon Y la Industria Nacional - Perfil
DYEAR=1900
DGENRE=Ballad
TTITLE0=Nuestra Plaza
TTITLE1=La Tarde que te Ame
TTITLE2=Noche A Noche Dia A Dia
TTITLE3=Otro Dia Sin Tu Amor
TTITLE4=Afuera Esta Lloviendo
TTITLE5=Quisiera Tener Tu Amor
TTITLE6=Una Vieja Cancion de Amor
TTITLE7=Lejos del Destino Del Mundo
TTITLE8=Chau Chau Adios
TTITLE9=Somos Dos Por La Gracia De Dios
TTITLE10=Balada Del Abuelo
TTITLE11=Eres Tu La Dueña de MI corazón
TTITLE12=Solamente Una Vez
TTITLE13=Para Vivir Una Noche Mas
TTITLE14=Querer Por Querer
EXTD=
EXTT0=
EXTT1=
EXTT2=
EXTT3=
EXTT4=
EXTT5=
EXTT6=
EXTT7=
EXTT8=
EXTT9=
EXTT10=
EXTT11=
EXTT12=
EXTT13=
EXTT14=
PLAYORDER=
